<?xml version="1.0" encoding="utf-8" standalone="no"?><svg xmlns:dc="http://purl.org/dc/elements/1.1/" xmlns:cc="http://creativecommons.org/ns#" xmlns:rdf="http://www.w3.org/1999/02/22-rdf-syntax-ns#" xmlns:svg="http://www.w3.org/2000/svg" xmlns="http://www.w3.org/2000/svg" xmlns:xlink="http://www.w3.org/1999/xlink" width="115" height="22.750004" id="svg5198" version="1.1"><defs id="defs5200" /><metadata id="metadata5203"><rdf:RDF><cc:Work rdf:about=""><dc:format>image/svg+xml</dc:format><dc:type rdf:resource="http://purl.org/dc/dcmitype/StillImage" /><dc:title /></cc:Work></rdf:RDF></metadata><g style="display:inline" transform="translate(-14.754855,-1027.4342)" id="layer1"><rect y="1041.2622" x="133.00023" height="2.0999999" width="1.000026" id="rect5765-9-9-0-0-8-0" style="opacity:0;fill:#000000;fill-opacity:1" /><rect y="1041.2622" x="136.99986" height="2.0999999" width="1" id="rect5765-9-4-2-3-5-0-5" style="opacity:0;fill:#000000;fill-opacity:1" /><text transform="translate(12.104855,1032.0442)" id="text4739" y="18.240952" x="6.717514" style="font-style:normal;font-weight:normal;font-size:40px;line-height:125%;font-family:Sans;letter-spacing:0px;word-spacing:0px;fill:#000000;fill-opacity:1;stroke:none" xml:space="preserve"><tspan y="18.240952" x="6.717514" id="tspan4741" /></text><text id="labelLeft" y="1045.1559" x="30" style="font-style:normal;font-variant:normal;font-weight:normal;font-stretch:normal;font-size:3px;line-height:100%;font-family:Sans;-inkscape-font-specification:Sans;text-align:center;letter-spacing:0px;word-spacing:0px;writing-mode:lr-tb;text-anchor:middle;display:inline;fill:#000000;fill-opacity:1;stroke:none" xml:space="preserve"><tspan style="text-align:start;text-anchor:start" id="tspan3853" y="1045.1559" x="30">left</tspan></text><text id="labelRight" y="1044.7682" x="105" style="font-style:normal;font-variant:normal;font-weight:normal;font-stretch:normal;font-size:3px;line-height:100%;font-family:Sans;-inkscape-font-specification:Sans;text-align:start;letter-spacing:0px;word-spacing:0px;writing-mode:lr-tb;text-anchor:start;display:inline;fill:#000000;fill-opacity:1;stroke:none" xml:space="preserve"><tspan style="text-align:end;text-anchor:end" id="tspan3853-3" y="1044.7682" x="105">right</tspan></text><path id="path4250" d="m 22.104855,1041.2842 99.999995,0" style="fill:none;fill-rule:evenodd;stroke:#000000;stroke-width:0.30000001;stroke-linecap:butt;stroke-linejoin:miter;stroke-miterlimit:4;stroke-dasharray:none;stroke-opacity:1" /><path id="path4252" d="m 22.204855,1041.4342 0,-5" style="fill:none;fill-rule:evenodd;stroke:#000000;stroke-width:0.23783921;stroke-linecap:butt;stroke-linejoin:miter;stroke-miterlimit:4;stroke-dasharray:none;stroke-opacity:1" /><use height="100%" width="100%" id="use5759" transform="translate(5,0)" xlink:href="#path4252" y="0" x="0" /><use height="100%" width="100%" id="use5761" transform="translate(10,0)" xlink:href="#path4252" y="0" x="0" /><use height="100%" width="100%" id="use5763" transform="translate(15,0)" xlink:href="#path4252" y="0" x="0" /><use height="100%" width="100%" id="use5765" transform="translate(20,0)" xlink:href="#path4252" y="0" x="0" /><use height="100%" width="100%" id="use5767" transform="translate(25,0)" xlink:href="#path4252" y="0" x="0" /><use height="100%" width="100%" id="use5769" transform="translate(30,0)" xlink:href="#path4252" y="0" x="0" /><use height="100%" width="100%" id="use5771" transform="translate(35,0)" xlink:href="#path4252" y="0" x="0" /><use height="100%" width="100%" id="use5773" transform="translate(40,0)" xlink:href="#path4252" y="0" x="0" /><use height="100%" width="100%" id="use5775" transform="translate(45,0)" xlink:href="#path4252" y="0" x="0" /><use height="100%" width="100%" id="use5777" transform="matrix(1,0,0,1.6,50,-624.86052)" xlink:href="#path4252" y="0" x="0" /><use height="100%" width="100%" id="use5779" transform="translate(55,0)" xlink:href="#path4252" y="0" x="0" /><use height="100%" width="100%" id="use5781" transform="translate(60,0)" xlink:href="#path4252" y="0" x="0" /><use height="100%" width="100%" id="use5783" transform="translate(65,0)" xlink:href="#path4252" y="0" x="0" /><use height="100%" width="100%" id="use5785" transform="translate(70,0)" xlink:href="#path4252" y="0" x="0" /><use height="100%" width="100%" id="use5787" transform="translate(75,0)" xlink:href="#path4252" y="0" x="0" /><use height="100%" width="100%" id="use5789" transform="translate(80,0)" xlink:href="#path4252" y="0" x="0" /><use height="100%" width="100%" id="use5791" transform="translate(85,0)" xlink:href="#path4252" y="0" x="0" /><use height="100%" width="100%" id="use5793" transform="translate(90,0)" xlink:href="#path4252" y="0" x="0" /><use height="100%" width="100%" id="use5795" transform="translate(95,0)" xlink:href="#path4252" y="0" x="0" /><use height="100%" width="100%" id="use5797" transform="translate(100,0)" xlink:href="#path4252" y="0" x="0" /></g><g id="layer2" transform="translate(5.2451471,8.9279683)" style="display:inline;opacity:1"><rect y="-2.9323058" x="-0.51732278" height="11.83144" width="4.9709902" id="0" style="opacity:0;stroke:#000000;stroke-width:0.11210302px;stroke-linecap:butt;stroke-linejoin:miter;stroke-opacity:1" /><rect y="-2.9323058" x="4.5553379" height="11.83144" width="4.9709902" id="1" style="display:inline;opacity:0;stroke:#000000;stroke-width:0.11210302px;stroke-linecap:butt;stroke-linejoin:miter;stroke-opacity:1" /><rect y="-2.9323058" x="9.615571" height="11.83144" width="4.9709902" id="2" style="display:inline;opacity:0;stroke:#000000;stroke-width:0.11210302px;stroke-linecap:butt;stroke-linejoin:miter;stroke-opacity:1" /><rect y="-2.9323058" x="14.675803" height="11.83144" width="4.9709902" id="3" style="display:inline;opacity:0;stroke:#000000;stroke-width:0.11210302px;stroke-linecap:butt;stroke-linejoin:miter;stroke-opacity:1" /><rect y="-2.9323058" x="19.758133" height="11.83144" width="4.9709902" id="4" style="display:inline;opacity:0;stroke:#000000;stroke-width:0.11210302px;stroke-linecap:butt;stroke-linejoin:miter;stroke-opacity:1" /><rect y="-2.9323058" x="24.840464" height="11.83144" width="4.9709902" id="5" style="display:inline;opacity:0;stroke:#000000;stroke-width:0.11210302px;stroke-linecap:butt;stroke-linejoin:miter;stroke-opacity:1" /><rect y="-2.9323058" x="29.768116" height="11.83144" width="4.9709902" id="6" style="display:inline;opacity:0;stroke:#000000;stroke-width:0.11210302px;stroke-linecap:butt;stroke-linejoin:miter;stroke-opacity:1" /><rect y="-2.9323058" x="34.607376" height="11.83144" width="4.9709902" id="7" style="display:inline;opacity:0;stroke:#000000;stroke-width:0.11210302px;stroke-linecap:butt;stroke-linejoin:miter;stroke-opacity:1" /><rect y="-2.9323058" x="39.512932" height="11.83144" width="4.9709902" id="8" style="display:inline;opacity:0;stroke:#000000;stroke-width:0.11210302px;stroke-linecap:butt;stroke-linejoin:miter;stroke-opacity:1" /><rect y="-2.9323058" x="44.617355" height="11.83144" width="4.9709902" id="9" style="display:inline;opacity:0;stroke:#000000;stroke-width:0.11210302px;stroke-linecap:butt;stroke-linejoin:miter;stroke-opacity:1" /><rect y="-2.9323058" x="49.677589" height="11.83144" width="4.9709902" id="10" style="display:inline;opacity:0;stroke:#000000;stroke-width:0.11210302px;stroke-linecap:butt;stroke-linejoin:miter;stroke-opacity:1" /><rect y="-2.9323058" x="54.715725" height="11.83144" width="4.9709902" id="11" style="display:inline;opacity:0;stroke:#000000;stroke-width:0.11210302px;stroke-linecap:butt;stroke-linejoin:miter;stroke-opacity:1" /><rect y="-2.9323058" x="59.731762" height="11.83144" width="4.9709902" id="12" style="display:inline;opacity:0;stroke:#000000;stroke-width:0.11210302px;stroke-linecap:butt;stroke-linejoin:miter;stroke-opacity:1" /><rect y="-2.9323058" x="64.747803" height="11.83144" width="4.9709902" id="13" style="display:inline;opacity:0;stroke:#000000;stroke-width:0.11210302px;stroke-linecap:butt;stroke-linejoin:miter;stroke-opacity:1" /><rect y="-2.9323058" x="69.76384" height="11.83144" width="4.9709902" id="14" style="display:inline;opacity:0;stroke:#000000;stroke-width:0.11210302px;stroke-linecap:butt;stroke-linejoin:miter;stroke-opacity:1" /><rect y="-2.9323058" x="74.757782" height="11.83144" width="4.9709902" id="15" style="display:inline;opacity:0;stroke:#000000;stroke-width:0.11210302px;stroke-linecap:butt;stroke-linejoin:miter;stroke-opacity:1" /><rect y="-2.9323058" x="79.751724" height="11.83144" width="4.9709902" id="16" style="display:inline;opacity:0;stroke:#000000;stroke-width:0.11210302px;stroke-linecap:butt;stroke-linejoin:miter;stroke-opacity:1" /><rect y="-2.9323058" x="84.767761" height="11.83144" width="4.9709902" id="17" style="display:inline;opacity:0;stroke:#000000;stroke-width:0.11210302px;stroke-linecap:butt;stroke-linejoin:miter;stroke-opacity:1" /><rect y="-2.9323058" x="89.720268" height="11.83144" width="4.9709902" id="18" style="display:inline;opacity:0;stroke:#000000;stroke-width:0.11210302px;stroke-linecap:butt;stroke-linejoin:miter;stroke-opacity:1" /><rect y="-2.9323058" x="94.689362" height="11.83144" width="4.9709902" id="19" style="display:inline;opacity:0;stroke:#000000;stroke-width:0.11210302px;stroke-linecap:butt;stroke-linejoin:miter;stroke-opacity:1" /><rect y="-2.9323058" x="99.528618" height="11.83144" width="4.9709902" id="20" style="display:inline;opacity:0;stroke:#000000;stroke-width:0.11210302px;stroke-linecap:butt;stroke-linejoin:miter;stroke-opacity:1" /></g><g transform="translate(4.3500016,8.0625619)" style="display:inline" id="layer4"><path id="cross" d="m 1.1153525,4.3356463 c -2.9687502,2.9375 -2.9687502,2.9375 -2.9687502,2.9375 l 1.53125034,-1.46875 -1.50000034,-1.53125 2.9687502,3" style="display:inline;fill:none;stroke:#000000;stroke-width:0.60000002;stroke-linecap:butt;stroke-linejoin:miter;stroke-miterlimit:4;stroke-dasharray:none;stroke-opacity:1" /></g></svg>