<?xml version="1.0" encoding="utf-8" standalone="no"?><svg xmlns:dc="http://purl.org/dc/elements/1.1/" xmlns:cc="http://creativecommons.org/ns#" xmlns:rdf="http://www.w3.org/1999/02/22-rdf-syntax-ns#" xmlns:svg="http://www.w3.org/2000/svg" xmlns="http://www.w3.org/2000/svg" version="1.1" id="svg5198" height="21.394005" width="136.76094"><defs id="defs5200" /><metadata id="metadata5203"><rdf:RDF><cc:Work rdf:about=""><dc:format>image/svg+xml</dc:format><dc:type rdf:resource="http://purl.org/dc/dcmitype/StillImage" /><dc:title /></cc:Work></rdf:RDF></metadata><g style="display:inline" transform="translate(-12.104855,-1030.0402)" id="layer1"><rect y="1036.3621" x="30" height="1" width="103" id="rect5206" style="fill:#000000;fill-opacity:1" /><rect y="1037.2622" x="25" height="2.0999999" width="1.000026" id="rect5763" style="opacity:0;fill:#000000;fill-opacity:1" /><rect y="1037.2622" x="29.000103" height="2.0999999" width="1.000026" id="rect5765" style="opacity:0;fill:#000000;fill-opacity:1" /><rect y="1037.2622" x="33.000206" height="2.0999999" width="1.000026" id="rect5765-9" style="fill:#000000;fill-opacity:1" /><rect y="1037.2622" x="36.999847" height="2.0999999" width="1" id="rect5765-9-4" style="fill:#000000;fill-opacity:1" /><rect y="1037.3622" x="40.799999" height="5" width="1.2" id="rect5822" style="fill:#000000;fill-opacity:1" /><rect y="1037.2622" x="45" height="2.0999999" width="1.000026" id="rect5763-5" style="fill:#000000;fill-opacity:1" /><rect y="1037.2622" x="49.000103" height="2.0999999" width="1.000026" id="rect5765-7" style="fill:#000000;fill-opacity:1" /><rect y="1037.2622" x="53.000206" height="2.0999999" width="1.000026" id="rect5765-9-9" style="fill:#000000;fill-opacity:1" /><rect y="1037.2622" x="56.999847" height="2.0999999" width="1" id="rect5765-9-4-2" style="fill:#000000;fill-opacity:1" /><rect y="1037.3622" x="60.799999" height="5" width="1.2" id="rect5822-6" style="fill:#000000;fill-opacity:1" /><rect y="1037.2622" x="65" height="2.0999999" width="1.000026" id="rect5763-5-2" style="fill:#000000;fill-opacity:1" /><rect y="1037.2622" x="69.000107" height="2.0999999" width="1.000026" id="rect5765-7-5" style="fill:#000000;fill-opacity:1" /><rect y="1037.2622" x="73.000206" height="2.0999999" width="1.000026" id="rect5765-9-9-0" style="fill:#000000;fill-opacity:1" /><rect y="1037.2622" x="76.999847" height="2.0999999" width="1" id="rect5765-9-4-2-3" style="fill:#000000;fill-opacity:1" /><rect y="1037.3622" x="80.800003" height="5" width="1.2" id="rect5822-6-5" style="fill:#000000;fill-opacity:1" /><rect y="1037.2622" x="85.000008" height="2.0999999" width="1.000026" id="rect5763-5-2-9" style="fill:#000000;fill-opacity:1" /><rect y="1037.2622" x="89.000114" height="2.0999999" width="1.000026" id="rect5765-7-5-9" style="fill:#000000;fill-opacity:1" /><rect y="1037.2622" x="93.000214" height="2.0999999" width="1.000026" id="rect5765-9-9-0-0" style="fill:#000000;fill-opacity:1" /><rect y="1037.2622" x="96.999855" height="2.0999999" width="1" id="rect5765-9-4-2-3-5" style="fill:#000000;fill-opacity:1" /><rect y="1037.3622" x="100.8" height="5" width="1.2" id="rect5822-6-5-4" style="fill:#000000;fill-opacity:1" /><rect y="1037.2622" x="105.00002" height="2.0999999" width="1.000026" id="rect5763-5-2-9-6" style="fill:#000000;fill-opacity:1" /><rect y="1037.2622" x="109.00013" height="2.0999999" width="1.000026" id="rect5765-7-5-9-9" style="fill:#000000;fill-opacity:1" /><rect y="1037.2622" x="113.00023" height="2.0999999" width="1.000026" id="rect5765-9-9-0-0-8" style="fill:#000000;fill-opacity:1" /><rect y="1037.2622" x="116.99986" height="2.0999999" width="1" id="rect5765-9-4-2-3-5-0" style="fill:#000000;fill-opacity:1" /><rect y="1037.3622" x="120.8" height="5" width="1.2" id="rect5822-6-5-4-7" style="fill:#000000;fill-opacity:1" /><rect y="1037.2622" x="125.00002" height="2.0999999" width="1.000026" id="rect5763-5-2-9-6-9" style="fill:#000000;fill-opacity:1" /><rect y="1037.2622" x="129.00012" height="2.0999999" width="1.000026" id="rect5765-7-5-9-9-9" style="fill:#000000;fill-opacity:1" /><rect y="1037.2622" x="133.00023" height="2.0999999" width="1.000026" id="rect5765-9-9-0-0-8-0" style="opacity:0;fill:#000000;fill-opacity:1" /><rect y="1037.2622" x="136.99986" height="2.0999999" width="1" id="rect5765-9-4-2-3-5-0-5" style="opacity:0;fill:#000000;fill-opacity:1" /><rect y="1036.6622" x="21.204855" height="0.40000001" width="8.8000002" id="rect6036" style="fill:#000000;fill-opacity:1" /><rect y="1036.9623" x="21.206226" height="5.4000001" width="0.3491767" id="rect6036-5" style="fill:#000000;fill-opacity:1" /><rect transform="scale(-1,1)" y="1036.6621" x="-141.80486" height="0.40000001" width="8.8000002" id="rect6036-2" style="fill:#000000;fill-opacity:1" /><rect transform="scale(-1,1)" y="1036.9622" x="-141.80486" height="5.4000001" width="0.40000001" id="rect6036-5-2" style="fill:#000000;fill-opacity:1" /><text id="label10" y="1044.4059" x="21.174191" style="font-style:normal;font-variant:normal;font-weight:normal;font-stretch:normal;font-size:2px;line-height:100%;font-family:Sans;-inkscape-font-specification:Sans;text-align:center;letter-spacing:0px;word-spacing:0px;writing-mode:lr-tb;text-anchor:middle;fill:#000000;fill-opacity:1;stroke:none" xml:space="preserve"><tspan y="1044.4059" x="21.174191" id="tspan3851">extrem</tspan><tspan id="tspan3853" y="1046.4059" x="21.174191">schlecht</tspan></text><text id="label20" y="1044.5059" x="41.174191" style="font-style:normal;font-variant:normal;font-weight:normal;font-stretch:normal;font-size:2px;line-height:100%;font-family:Sans;-inkscape-font-specification:Sans;text-align:center;letter-spacing:0px;word-spacing:0px;writing-mode:lr-tb;text-anchor:middle;display:inline;fill:#000000;fill-opacity:1;stroke:none" xml:space="preserve"><tspan id="tspan3853-8" y="1044.5059" x="41.174191">schlecht</tspan></text><text id="label30" y="1044.6182" x="61.267941" style="font-style:normal;font-variant:normal;font-weight:normal;font-stretch:normal;font-size:2px;line-height:100%;font-family:Sans;-inkscape-font-specification:Sans;text-align:center;letter-spacing:0px;word-spacing:0px;writing-mode:lr-tb;text-anchor:middle;display:inline;fill:#000000;fill-opacity:1;stroke:none" xml:space="preserve"><tspan id="tspan3853-8-1" y="1044.6182" x="61.267941">dürftig</tspan></text><text id="label40" y="1044.6058" x="81.267944" style="font-style:normal;font-variant:normal;font-weight:normal;font-stretch:normal;font-size:2px;line-height:100%;font-family:Sans;-inkscape-font-specification:Sans;text-align:center;letter-spacing:0px;word-spacing:0px;writing-mode:lr-tb;text-anchor:middle;display:inline;fill:#000000;fill-opacity:1;stroke:none" xml:space="preserve"><tspan x="81.267944" id="tspan3853-8-1-6" y="1044.6058">ordentlich</tspan></text><text id="label50" y="1044.4182" x="101.4683" style="font-style:normal;font-variant:normal;font-weight:normal;font-stretch:normal;font-size:2px;line-height:100%;font-family:Sans;-inkscape-font-specification:Sans;text-align:center;letter-spacing:0px;word-spacing:0px;writing-mode:lr-tb;text-anchor:middle;display:inline;fill:#000000;fill-opacity:1;stroke:none" xml:space="preserve"><tspan id="tspan3853-8-1-6-0" y="1044.4182" x="101.4683">gut</tspan></text><text id="label60" y="1044.5182" x="121.25037" style="font-style:normal;font-variant:normal;font-weight:normal;font-stretch:normal;font-size:2px;line-height:100%;font-family:Sans;-inkscape-font-specification:Sans;text-align:center;letter-spacing:0px;word-spacing:0px;writing-mode:lr-tb;text-anchor:middle;display:inline;fill:#000000;fill-opacity:1;stroke:none" xml:space="preserve"><tspan id="tspan3853-8-1-6-04" y="1044.5182" x="121.25037">ausgezeichnet</tspan></text><text id="label70" y="1044.5059" x="141.63435" style="font-style:normal;font-variant:normal;font-weight:normal;font-stretch:normal;font-size:2px;line-height:100%;font-family:Sans;-inkscape-font-specification:Sans;text-align:center;letter-spacing:0px;word-spacing:0px;writing-mode:lr-tb;text-anchor:middle;display:inline;fill:#000000;fill-opacity:1;stroke:none" xml:space="preserve"><tspan id="tspan3853-8-1-6-04-3" y="1044.5059" x="141.63435">ideal</tspan></text><text id="text4253" y="1060.8917" x="39.858795" style="font-style:normal;font-variant:normal;font-weight:normal;font-stretch:normal;font-size:8px;line-height:125%;font-family:Arial;-inkscape-font-specification:"Arial, Normal";text-align:center;letter-spacing:0px;word-spacing:0px;writing-mode:lr-tb;text-anchor:middle;fill:#000000;fill-opacity:1;stroke:none;stroke-width:1px;stroke-linecap:butt;stroke-linejoin:miter;stroke-opacity:1" xml:space="preserve"><tspan y="1060.8917" x="39.858795" id="tspan4255" /></text></g><g style="display:inline" transform="translate(7.8951471,6.3219508)" id="layer3"><ellipse id="12" style="opacity:0;fill:#000000;fill-opacity:0.45871558" cx="5.4548545" cy="1.5720948" rx="1" ry="2.5" /><ellipse id="13" style="opacity:0;fill:#000000;fill-opacity:0.45871558" cx="7.5048547" cy="1.5720948" rx="0.94999999" ry="2.5" /><ellipse id="14" style="opacity:0;fill:#000000;fill-opacity:0.45871558" cx="9.5048542" cy="1.5720948" rx="0.94999999" ry="2.5" /><ellipse id="15" style="opacity:0;fill:#000000;fill-opacity:0.45871558" cx="11.504855" cy="1.5720948" rx="0.94999999" ry="2.5" /><ellipse id="16" style="opacity:0;fill:#000000;fill-opacity:0.45871558" cx="13.504855" cy="1.5720948" rx="0.94999999" ry="2.5" /><ellipse id="17" style="opacity:0;fill:#000000;fill-opacity:0.45871558" cx="15.504855" cy="1.5720948" rx="0.94999999" ry="2.5" /><ellipse id="18" style="opacity:0;fill:#000000;fill-opacity:0.45871558" cx="17.504854" cy="1.5720948" rx="0.94999999" ry="2.5" /><ellipse id="19" style="opacity:0;fill:#000000;fill-opacity:0.45871558" cx="19.504854" cy="1.5720948" rx="0.94999999" ry="2.5" /><ellipse id="20" style="opacity:0;fill:#000000;fill-opacity:0.45871558" cx="21.404854" cy="1.5720948" rx="0.94999999" ry="2.5" /><ellipse id="22" style="opacity:0;fill:#000000;fill-opacity:0.45871558" cx="25.454855" cy="1.5720948" rx="1" ry="2.5" /><ellipse id="23" style="opacity:0;fill:#000000;fill-opacity:0.45871558" cx="27.504854" cy="1.5720948" rx="0.94999999" ry="2.5" /><ellipse id="24" style="opacity:0;fill:#000000;fill-opacity:0.45871558" cx="29.504854" cy="1.5720948" rx="0.94999999" ry="2.5" /><ellipse id="25" style="opacity:0;fill:#000000;fill-opacity:0.45871558" cx="31.504854" cy="1.5720948" rx="0.94999999" ry="2.5" /><ellipse id="26" style="opacity:0;fill:#000000;fill-opacity:0.45871558" cx="33.504852" cy="1.5720948" rx="0.94999999" ry="2.5" /><ellipse id="27" style="opacity:0;fill:#000000;fill-opacity:0.45871558" cx="35.504856" cy="1.5720948" rx="0.94999999" ry="2.5" /><ellipse id="28" style="opacity:0;fill:#000000;fill-opacity:0.45871558" cx="37.504856" cy="1.5720948" rx="0.94999999" ry="2.5" /><ellipse id="29" style="opacity:0;fill:#000000;fill-opacity:0.45871558" cx="39.504856" cy="1.5720948" rx="0.94999999" ry="2.5" /><ellipse id="30" style="opacity:0;fill:#000000;fill-opacity:0.45871558" cx="41.404854" cy="1.5720948" rx="0.94999999" ry="2.5" /><ellipse id="21" style="opacity:0;fill:#000000;fill-opacity:0.45871558" cx="23.354855" cy="1.5720948" rx="0.94999999" ry="2.5" /><ellipse id="32" style="opacity:0;fill:#000000;fill-opacity:0.45871558" cx="45.454853" cy="1.5720948" rx="1" ry="2.5" /><ellipse id="33" style="opacity:0;fill:#000000;fill-opacity:0.45871558" cx="47.504852" cy="1.5720948" rx="0.94999999" ry="2.5" /><ellipse id="34" style="opacity:0;fill:#000000;fill-opacity:0.45871558" cx="49.504852" cy="1.5720948" rx="0.94999999" ry="2.5" /><ellipse id="35" style="opacity:0;fill:#000000;fill-opacity:0.45871558" cx="51.504852" cy="1.5720948" rx="0.94999999" ry="2.5" /><ellipse id="36" style="opacity:0;fill:#000000;fill-opacity:0.45871558" cx="53.504852" cy="1.5720948" rx="0.94999999" ry="2.5" /><ellipse id="37" style="opacity:0;fill:#000000;fill-opacity:0.45871558" cx="55.504856" cy="1.5720948" rx="0.94999999" ry="2.5" /><ellipse id="38" style="opacity:0;fill:#000000;fill-opacity:0.45871558" cx="57.504856" cy="1.5720948" rx="0.94999999" ry="2.5" /><ellipse id="39" style="opacity:0;fill:#000000;fill-opacity:0.45871558" cx="59.504856" cy="1.5720948" rx="0.94999999" ry="2.5" /><ellipse id="40" style="opacity:0;fill:#000000;fill-opacity:0.45871558" cx="61.404854" cy="1.5720948" rx="0.94999999" ry="2.5" /><ellipse id="31" style="opacity:0;fill:#000000;fill-opacity:0.45871558" cx="43.354855" cy="1.5720948" rx="0.94999999" ry="2.5" /><ellipse id="42" style="opacity:0;fill:#000000;fill-opacity:0.45871558" cx="65.454857" cy="1.5720948" rx="1" ry="2.5" /><ellipse id="43" style="opacity:0;fill:#000000;fill-opacity:0.45871558" cx="67.504852" cy="1.5720948" rx="0.94999999" ry="2.5" /><ellipse id="44" style="opacity:0;fill:#000000;fill-opacity:0.45871558" cx="69.504852" cy="1.5720948" rx="0.94999999" ry="2.5" /><ellipse id="45" style="opacity:0;fill:#000000;fill-opacity:0.45871558" cx="71.504852" cy="1.5720948" rx="0.94999999" ry="2.5" /><ellipse id="46" style="opacity:0;fill:#000000;fill-opacity:0.45871558" cx="73.504852" cy="1.5720948" rx="0.94999999" ry="2.5" /><ellipse id="47" style="opacity:0;fill:#000000;fill-opacity:0.45871558" cx="75.504852" cy="1.5720948" rx="0.94999999" ry="2.5" /><ellipse id="48" style="opacity:0;fill:#000000;fill-opacity:0.45871558" cx="77.504852" cy="1.5720948" rx="0.94999999" ry="2.5" /><ellipse id="49" style="opacity:0;fill:#000000;fill-opacity:0.45871558" cx="79.504852" cy="1.5720948" rx="0.94999999" ry="2.5" /><ellipse id="50" style="opacity:0;fill:#000000;fill-opacity:0.45871558" cx="81.404854" cy="1.5720948" rx="0.94999999" ry="2.5" /><ellipse id="41" style="opacity:0;fill:#000000;fill-opacity:0.45871558" cx="63.354855" cy="1.5720948" rx="0.94999999" ry="2.5" /><ellipse id="52" style="opacity:0;fill:#000000;fill-opacity:0.45871558" cx="85.454857" cy="1.5720948" rx="1" ry="2.5" /><ellipse id="53" style="opacity:0;fill:#000000;fill-opacity:0.45871558" cx="87.504852" cy="1.5720948" rx="0.94999999" ry="2.5" /><ellipse id="54" style="opacity:0;fill:#000000;fill-opacity:0.45871558" cx="89.504852" cy="1.5720948" rx="0.94999999" ry="2.5" /><ellipse id="55" style="opacity:0;fill:#000000;fill-opacity:0.45871558" cx="91.504852" cy="1.5720948" rx="0.94999999" ry="2.5" /><ellipse id="56" style="opacity:0;fill:#000000;fill-opacity:0.45871558" cx="93.504852" cy="1.5720948" rx="0.94999999" ry="2.5" /><ellipse id="57" style="opacity:0;fill:#000000;fill-opacity:0.45871558" cx="95.504852" cy="1.5720948" rx="0.94999999" ry="2.5" /><ellipse id="58" style="opacity:0;fill:#000000;fill-opacity:0.45871558" cx="97.504852" cy="1.5720948" rx="0.94999999" ry="2.5" /><ellipse id="59" style="opacity:0;fill:#000000;fill-opacity:0.45871558" cx="99.504852" cy="1.5720948" rx="0.94999999" ry="2.5" /><ellipse id="60" style="opacity:0;fill:#000000;fill-opacity:0.45871558" cx="101.40485" cy="1.5720948" rx="0.94999999" ry="2.5" /><ellipse id="51" style="opacity:0;fill:#000000;fill-opacity:0.45871558" cx="83.354858" cy="1.5720948" rx="0.94999999" ry="2.5" /><ellipse id="62" style="opacity:0;fill:#000000;fill-opacity:0.45871558" cx="105.50486" cy="1.5720948" rx="1" ry="2.5" /><ellipse id="63" style="opacity:0;fill:#000000;fill-opacity:0.45871558" cx="107.55486" cy="1.5720948" rx="0.94999999" ry="2.5" /><ellipse id="64" style="opacity:0;fill:#000000;fill-opacity:0.45871558" cx="109.55486" cy="1.5720948" rx="0.94999999" ry="2.5" /><ellipse id="65" style="opacity:0;fill:#000000;fill-opacity:0.45871558" cx="111.55486" cy="1.5720948" rx="0.94999999" ry="2.5" /><ellipse id="66" style="opacity:0;fill:#000000;fill-opacity:0.45871558" cx="113.55486" cy="1.5720948" rx="0.94999999" ry="2.5" /><ellipse id="67" style="opacity:0;fill:#000000;fill-opacity:0.45871558" cx="115.55486" cy="1.5720948" rx="0.94999999" ry="2.5" /><ellipse id="68" style="opacity:0;fill:#000000;fill-opacity:0.45871558" cx="117.55486" cy="1.5720948" rx="0.94999999" ry="2.5" /><ellipse id="69" style="opacity:0;fill:#000000;fill-opacity:0.45871558" cx="119.55486" cy="1.5720948" rx="0.94999999" ry="2.5" /><ellipse id="70" style="opacity:0;fill:#000000;fill-opacity:0.45871558" cx="121.55486" cy="1.5720948" rx="0.94999999" ry="2.5" /><ellipse id="61" style="opacity:0;fill:#000000;fill-opacity:0.45871558" cx="103.40485" cy="1.5720948" rx="0.94999999" ry="2.5" /><ellipse id="11" style="opacity:0;fill:#000000;fill-opacity:0.45871558" cx="3.4048545" cy="1.5720948" rx="0.94999999" ry="2.5" /><ellipse id="10" style="opacity:0;fill:#000000;fill-opacity:0.45871558" cx="1.4048545" cy="1.5720948" rx="0.94999999" ry="2.5" /></g><g transform="translate(7.0000016,5.4565456)" style="display:inline" id="layer4"><path id="cross" d="M 3.666497,-0.09404561 C 0.69774682,2.8434544 0.69774682,2.8434544 0.69774682,2.8434544 L 2.2289971,1.3747044 0.72899682,-0.15654561 3.697747,2.8434544" style="fill:none;stroke:#000000;stroke-width:0.60000002;stroke-linecap:butt;stroke-linejoin:miter;stroke-miterlimit:4;stroke-opacity:1;stroke-dasharray:none" /></g></svg>