<?xml version="1.0" encoding="utf-8" standalone="no"?><svg xmlns:dc="http://purl.org/dc/elements/1.1/" xmlns:cc="http://creativecommons.org/ns#" xmlns:rdf="http://www.w3.org/1999/02/22-rdf-syntax-ns#" xmlns:svg="http://www.w3.org/2000/svg" xmlns="http://www.w3.org/2000/svg" version="1.1" id="svg5198" height="21.394005" width="136.76094"><defs id="defs5200" /><metadata id="metadata5203"><rdf:RDF><cc:Work rdf:about=""><dc:format>image/svg+xml</dc:format><dc:type rdf:resource="http://purl.org/dc/dcmitype/StillImage" /><dc:title /></cc:Work></rdf:RDF></metadata><g style="display:inline" transform="translate(-12.104855,-1030.0402)" id="layer1"><rect y="1036.3621" x="30" height="1" width="103" id="rect5206" style="fill:#000000;fill-opacity:1" /><rect y="1037.2622" x="25" height="2.0999999" width="1.000026" id="rect5763" style="opacity:0;fill:#000000;fill-opacity:1" /><rect y="1037.2622" x="29.000103" height="2.0999999" width="1.000026" id="rect5765" style="opacity:0;fill:#000000;fill-opacity:1" /><rect y="1037.2622" x="33.000206" height="2.0999999" width="1.000026" id="rect5765-9" style="fill:#000000;fill-opacity:1" /><rect y="1037.2622" x="36.999847" height="2.0999999" width="1" id="rect5765-9-4" style="fill:#000000;fill-opacity:1" /><rect y="1037.3622" x="40.799999" height="5" width="1.2" id="rect5822" style="fill:#000000;fill-opacity:1" /><rect y="1037.2622" x="45" height="2.0999999" width="1.000026" id="rect5763-5" style="fill:#000000;fill-opacity:1" /><rect y="1037.2622" x="49.000103" height="2.0999999" width="1.000026" id="rect5765-7" style="fill:#000000;fill-opacity:1" /><rect y="1037.2622" x="53.000206" height="2.0999999" width="1.000026" id="rect5765-9-9" style="fill:#000000;fill-opacity:1" /><rect y="1037.2622" x="56.999847" height="2.0999999" width="1" id="rect5765-9-4-2" style="fill:#000000;fill-opacity:1" /><rect y="1037.3622" x="60.799999" height="5" width="1.2" id="rect5822-6" style="fill:#000000;fill-opacity:1" /><rect y="1037.2622" x="65" height="2.0999999" width="1.000026" id="rect5763-5-2" style="fill:#000000;fill-opacity:1" /><rect y="1037.2622" x="69.000107" height="2.0999999" width="1.000026" id="rect5765-7-5" style="fill:#000000;fill-opacity:1" /><rect y="1037.2622" x="73.000206" height="2.0999999" width="1.000026" id="rect5765-9-9-0" style="fill:#000000;fill-opacity:1" /><rect y="1037.2622" x="76.999847" height="2.0999999" width="1" id="rect5765-9-4-2-3" style="fill:#000000;fill-opacity:1" /><rect y="1037.3622" x="80.800003" height="5" width="1.2" id="rect5822-6-5" style="fill:#000000;fill-opacity:1" /><rect y="1037.2622" x="85.000008" height="2.0999999" width="1.000026" id="rect5763-5-2-9" style="fill:#000000;fill-opacity:1" /><rect y="1037.2622" x="89.000114" height="2.0999999" width="1.000026" id="rect5765-7-5-9" style="fill:#000000;fill-opacity:1" /><rect y="1037.2622" x="93.000214" height="2.0999999" width="1.000026" id="rect5765-9-9-0-0" style="fill:#000000;fill-opacity:1" /><rect y="1037.2622" x="96.999855" height="2.0999999" width="1" id="rect5765-9-4-2-3-5" style="fill:#000000;fill-opacity:1" /><rect y="1037.3622" x="100.8" height="5" width="1.2" id="rect5822-6-5-4" style="fill:#000000;fill-opacity:1" /><rect y="1037.2622" x="105.00002" height="2.0999999" width="1.000026" id="rect5763-5-2-9-6" style="fill:#000000;fill-opacity:1" /><rect y="1037.2622" x="109.00013" height="2.0999999" width="1.000026" id="rect5765-7-5-9-9" style="fill:#000000;fill-opacity:1" /><rect y="1037.2622" x="113.00023" height="2.0999999" width="1.000026" id="rect5765-9-9-0-0-8" style="fill:#000000;fill-opacity:1" /><rect y="1037.2622" x="116.99986" height="2.0999999" width="1" id="rect5765-9-4-2-3-5-0" style="fill:#000000;fill-opacity:1" /><rect y="1037.3622" x="120.8" height="5" width="1.2" id="rect5822-6-5-4-7" style="fill:#000000;fill-opacity:1" /><rect y="1037.2622" x="125.00002" height="2.0999999" width="1.000026" id="rect5763-5-2-9-6-9" style="fill:#000000;fill-opacity:1" /><rect y="1037.2622" x="129.00012" height="2.0999999" width="1.000026" id="rect5765-7-5-9-9-9" style="fill:#000000;fill-opacity:1" /><rect y="1037.2622" x="133.00023" height="2.0999999" width="1.000026" id="rect5765-9-9-0-0-8-0" style="opacity:0;fill:#000000;fill-opacity:1" /><rect y="1037.2622" x="136.99986" height="2.0999999" width="1" id="rect5765-9-4-2-3-5-0-5" style="opacity:0;fill:#000000;fill-opacity:1" /><rect y="1036.6622" x="21.204855" height="0.40000001" width="8.8000002" id="rect6036" style="fill:#000000;fill-opacity:1" /><rect y="1036.9623" x="21.206226" height="5.4000001" width="0.3491767" id="rect6036-5" style="fill:#000000;fill-opacity:1" /><rect transform="scale(-1,1)" y="1036.6621" x="-141.80486" height="0.40000001" width="8.8000002" id="rect6036-2" style="fill:#000000;fill-opacity:1" /><rect transform="scale(-1,1)" y="1036.9622" x="-141.80486" height="5.4000001" width="0.40000001" id="rect6036-5-2" style="fill:#000000;fill-opacity:1" /><text id="label10" y="1044.4059" x="21.174191" style="font-style:normal;font-variant:normal;font-weight:normal;font-stretch:normal;font-size:2px;line-height:100%;font-family:Sans;-inkscape-font-specification:Sans;text-align:center;letter-spacing:0px;word-spacing:0px;writing-mode:lr-tb;text-anchor:middle;fill:#000000;fill-opacity:1;stroke:none" xml:space="preserve"><tspan y="1044.4059" x="21.174191" id="tspan3851">extrem</tspan><tspan id="tspan3853" y="1046.4059" x="21.174191">schlecht</tspan></text><text id="label20" y="1044.5059" x="41.174191" style="font-style:normal;font-variant:normal;font-weight:normal;font-stretch:normal;font-size:2px;line-height:100%;font-family:Sans;-inkscape-font-specification:Sans;text-align:center;letter-spacing:0px;word-spacing:0px;writing-mode:lr-tb;text-anchor:middle;display:inline;fill:#000000;fill-opacity:1;stroke:none" xml:space="preserve"><tspan id="tspan3853-8" y="1044.5059" x="41.174191">schlecht</tspan></text><text id="label30" y="1044.6182" x="61.267941" style="font-style:normal;font-variant:normal;font-weight:normal;font-stretch:normal;font-size:2px;line-height:100%;font-family:Sans;-inkscape-font-specification:Sans;text-align:center;letter-spacing:0px;word-spacing:0px;writing-mode:lr-tb;text-anchor:middle;display:inline;fill:#000000;fill-opacity:1;stroke:none" xml:space="preserve"><tspan id="tspan3853-8-1" y="1044.6182" x="61.267941">dürftig</tspan></text><text id="label40" y="1044.6058" x="81.267944" style="font-style:normal;font-variant:normal;font-weight:normal;font-stretch:normal;font-size:2px;line-height:100%;font-family:Sans;-inkscape-font-specification:Sans;text-align:center;letter-spacing:0px;word-spacing:0px;writing-mode:lr-tb;text-anchor:middle;display:inline;fill:#000000;fill-opacity:1;stroke:none" xml:space="preserve"><tspan x="81.267944" id="tspan3853-8-1-6" y="1044.6058">ordentlich</tspan></text><text id="label50" y="1044.4182" x="101.4683" style="font-style:normal;font-variant:normal;font-weight:normal;font-stretch:normal;font-size:2px;line-height:100%;font-family:Sans;-inkscape-font-specification:Sans;text-align:center;letter-spacing:0px;word-spacing:0px;writing-mode:lr-tb;text-anchor:middle;display:inline;fill:#000000;fill-opacity:1;stroke:none" xml:space="preserve"><tspan id="tspan3853-8-1-6-0" y="1044.4182" x="101.4683">gut</tspan></text><text id="label60" y="1044.5182" x="121.25037" style="font-style:normal;font-variant:normal;font-weight:normal;font-stretch:normal;font-size:2px;line-height:100%;font-family:Sans;-inkscape-font-specification:Sans;text-align:center;letter-spacing:0px;word-spacing:0px;writing-mode:lr-tb;text-anchor:middle;display:inline;fill:#000000;fill-opacity:1;stroke:none" xml:space="preserve"><tspan id="tspan3853-8-1-6-04" y="1044.5182" x="121.25037">ausgezeichnet</tspan></text><text id="label70" y="1044.5059" x="141.63435" style="font-style:normal;font-variant:normal;font-weight:normal;font-stretch:normal;font-size:2px;line-height:100%;font-family:Sans;-inkscape-font-specification:Sans;text-align:center;letter-spacing:0px;word-spacing:0px;writing-mode:lr-tb;text-anchor:middle;display:inline;fill:#000000;fill-opacity:1;stroke:none" xml:space="preserve"><tspan id="tspan3853-8-1-6-04-3" y="1044.5059" x="141.63435">ideal</tspan></text><text id="text4253" y="1060.8917" x="39.858795" style="font-style:normal;font-variant:normal;font-weight:normal;font-stretch:normal;font-size:8px;line-height:125%;font-family:Arial;-inkscape-font-specification:"Arial, Normal";text-align:center;letter-spacing:0px;word-spacing:0px;writing-mode:lr-tb;text-anchor:middle;fill:#000000;fill-opacity:1;stroke:none;stroke-width:1px;stroke-linecap:butt;stroke-linejoin:miter;stroke-opacity:1" xml:space="preserve"><tspan y="1060.8917" x="39.858795" id="tspan4255" /></text></g><g style="display:inline" transform="translate(7.8951471,6.3219508)" id="layer3"><rect id="12" style="opacity:0;fill:#000000;fill-opacity:0.45871558" x="4.4548545" y="-0.9279052" width="2" height="12" /><rect id="13" style="opacity:0;fill:#000000;fill-opacity:0.45871558" x="6.5048547" y="-0.9279052" width="2" height="12" /><rect id="14" style="opacity:0;fill:#000000;fill-opacity:0.45871558" x="8.5048542" y="-0.9279052" width="2" height="12" /><rect id="15" style="opacity:0;fill:#000000;fill-opacity:0.45871558" x="10.504855" y="-0.9279052" width="2" height="12" /><rect id="16" style="opacity:0;fill:#000000;fill-opacity:0.45871558" x="12.504855" y="-0.9279052" width="2" height="12" /><rect id="17" style="opacity:0;fill:#000000;fill-opacity:0.45871558" x="14.504855" y="-0.9279052" width="2" height="12" /><rect id="18" style="opacity:0;fill:#000000;fill-opacity:0.45871558" x="16.504854" y="-0.9279052" width="2" height="12" /><rect id="19" style="opacity:0;fill:#000000;fill-opacity:0.45871558" x="18.504854" y="-0.9279052" width="2" height="12" /><rect id="20" style="opacity:0;fill:#000000;fill-opacity:0.45871558" x="20.404854" y="-0.9279052" width="2" height="12" /><rect id="22" style="opacity:0;fill:#000000;fill-opacity:0.45871558" x="24.454855" y="-0.9279052" width="2" height="12" /><rect id="23" style="opacity:0;fill:#000000;fill-opacity:0.45871558" x="26.504854" y="-0.9279052" width="2" height="12" /><rect id="24" style="opacity:0;fill:#000000;fill-opacity:0.45871558" x="28.504854" y="-0.9279052" width="2" height="12" /><rect id="25" style="opacity:0;fill:#000000;fill-opacity:0.45871558" x="30.504854" y="-0.9279052" width="2" height="12" /><rect id="26" style="opacity:0;fill:#000000;fill-opacity:0.45871558" x="32.504852" y="-0.9279052" width="2" height="12" /><rect id="27" style="opacity:0;fill:#000000;fill-opacity:0.45871558" x="34.504856" y="-0.9279052" width="2" height="12" /><rect id="28" style="opacity:0;fill:#000000;fill-opacity:0.45871558" x="36.504856" y="-0.9279052" width="2" height="12" /><rect id="29" style="opacity:0;fill:#000000;fill-opacity:0.45871558" x="38.504856" y="-0.9279052" width="2" height="12" /><rect id="30" style="opacity:0;fill:#000000;fill-opacity:0.45871558" x="40.404854" y="-0.9279052" width="2" height="12" /><rect id="21" style="opacity:0;fill:#000000;fill-opacity:0.45871558" x="22.354855" y="-0.9279052" width="2" height="12" /><rect id="32" style="opacity:0;fill:#000000;fill-opacity:0.45871558" x="44.454853" y="-0.9279052" width="2" height="12" /><rect id="33" style="opacity:0;fill:#000000;fill-opacity:0.45871558" x="46.504852" y="-0.9279052" width="2" height="12" /><rect id="34" style="opacity:0;fill:#000000;fill-opacity:0.45871558" x="48.504852" y="-0.9279052" width="2" height="12" /><rect id="35" style="opacity:0;fill:#000000;fill-opacity:0.45871558" x="50.504852" y="-0.9279052" width="2" height="12" /><rect id="36" style="opacity:0;fill:#000000;fill-opacity:0.45871558" x="52.504852" y="-0.9279052" width="2" height="12" /><rect id="37" style="opacity:0;fill:#000000;fill-opacity:0.45871558" x="54.504856" y="-0.9279052" width="2" height="12" /><rect id="38" style="opacity:0;fill:#000000;fill-opacity:0.45871558" x="56.504856" y="-0.9279052" width="2" height="12" /><rect id="39" style="opacity:0;fill:#000000;fill-opacity:0.45871558" x="58.504856" y="-0.9279052" width="2" height="12" /><rect id="40" style="opacity:0;fill:#000000;fill-opacity:0.45871558" x="60.404854" y="-0.9279052" width="2" height="12" /><rect id="31" style="opacity:0;fill:#000000;fill-opacity:0.45871558" x="42.354855" y="-0.9279052" width="2" height="12" /><rect id="42" style="opacity:0;fill:#000000;fill-opacity:0.45871558" x="64.454857" y="-0.9279052" width="2" height="12" /><rect id="43" style="opacity:0;fill:#000000;fill-opacity:0.45871558" x="66.504852" y="-0.9279052" width="2" height="12" /><rect id="44" style="opacity:0;fill:#000000;fill-opacity:0.45871558" x="68.504852" y="-0.9279052" width="2" height="12" /><rect id="45" style="opacity:0;fill:#000000;fill-opacity:0.45871558" x="70.504852" y="-0.9279052" width="2" height="12" /><rect id="46" style="opacity:0;fill:#000000;fill-opacity:0.45871558" x="72.504852" y="-0.9279052" width="2" height="12" /><rect id="47" style="opacity:0;fill:#000000;fill-opacity:0.45871558" x="74.504852" y="-0.9279052" width="2" height="12" /><rect id="48" style="opacity:0;fill:#000000;fill-opacity:0.45871558" x="76.504852" y="-0.9279052" width="2" height="12" /><rect id="49" style="opacity:0;fill:#000000;fill-opacity:0.45871558" x="78.504852" y="-0.9279052" width="2" height="12" /><rect id="50" style="opacity:0;fill:#000000;fill-opacity:0.45871558" x="80.404854" y="-0.9279052" width="2" height="12" /><rect id="41" style="opacity:0;fill:#000000;fill-opacity:0.45871558" x="62.354855" y="-0.9279052" width="2" height="12" /><rect id="52" style="opacity:0;fill:#000000;fill-opacity:0.45871558" x="84.454857" y="-0.9279052" width="2" height="12" /><rect id="53" style="opacity:0;fill:#000000;fill-opacity:0.45871558" x="86.504852" y="-0.9279052" width="2" height="12" /><rect id="54" style="opacity:0;fill:#000000;fill-opacity:0.45871558" x="88.504852" y="-0.9279052" width="2" height="12" /><rect id="55" style="opacity:0;fill:#000000;fill-opacity:0.45871558" x="90.504852" y="-0.9279052" width="2" height="12" /><rect id="56" style="opacity:0;fill:#000000;fill-opacity:0.45871558" x="92.504852" y="-0.9279052" width="2" height="12" /><rect id="57" style="opacity:0;fill:#000000;fill-opacity:0.45871558" x="94.504852" y="-0.9279052" width="2" height="12" /><rect id="58" style="opacity:0;fill:#000000;fill-opacity:0.45871558" x="96.504852" y="-0.9279052" width="2" height="12" /><rect id="59" style="opacity:0;fill:#000000;fill-opacity:0.45871558" x="98.504852" y="-0.9279052" width="2" height="12" /><rect id="60" style="opacity:0;fill:#000000;fill-opacity:0.45871558" x="100.40485" y="-0.9279052" width="2" height="12" /><rect id="51" style="opacity:0;fill:#000000;fill-opacity:0.45871558" x="82.354858" y="-0.9279052" width="2" height="12" /><rect id="62" style="opacity:0;fill:#000000;fill-opacity:0.45871558" x="104.50486" y="-0.9279052" width="2" height="12" /><rect id="63" style="opacity:0;fill:#000000;fill-opacity:0.45871558" x="106.55486" y="-0.9279052" width="2" height="12" /><rect id="64" style="opacity:0;fill:#000000;fill-opacity:0.45871558" x="108.55486" y="-0.9279052" width="2" height="12" /><rect id="65" style="opacity:0;fill:#000000;fill-opacity:0.45871558" x="110.55486" y="-0.9279052" width="2" height="12" /><rect id="66" style="opacity:0;fill:#000000;fill-opacity:0.45871558" x="112.55486" y="-0.9279052" width="2" height="12" /><rect id="67" style="opacity:0;fill:#000000;fill-opacity:0.45871558" x="114.55486" y="-0.9279052" width="2" height="12" /><rect id="68" style="opacity:0;fill:#000000;fill-opacity:0.45871558" x="116.55486" y="-0.9279052" width="2" height="12" /><rect id="69" style="opacity:0;fill:#000000;fill-opacity:0.45871558" x="118.55486" y="-0.9279052" width="2" height="12" /><rect id="70" style="opacity:0;fill:#000000;fill-opacity:0.45871558" x="120.55486" y="-0.9279052" width="2" height="12" /><rect id="61" style="opacity:0;fill:#000000;fill-opacity:0.45871558" x="102.40485" y="-0.9279052" width="2" height="12" /><rect id="11" style="opacity:0;fill:#000000;fill-opacity:0.45871558" x="2.4048545" y="-0.9279052" width="2" height="12" /><rect id="10" style="opacity:0;fill:#000000;fill-opacity:0.45871558" x="0.4048545" y="-0.9279052" width="2" height="12" /></g><g transform="translate(7.0000016,5.4565456)" style="display:inline" id="layer4"><path id="cross" d="M 3.666497,-0.09404561 C 0.69774682,2.8434544 0.69774682,2.8434544 0.69774682,2.8434544 L 2.2289971,1.3747044 0.72899682,-0.15654561 3.697747,2.8434544" style="fill:none;stroke:#000000;stroke-width:0.60000002;stroke-linecap:butt;stroke-linejoin:miter;stroke-miterlimit:4;stroke-opacity:1;stroke-dasharray:none" /></g></svg>